<svg xmlns="http://www.w3.org/2000/svg" width="171.412" height="50.18" viewBox="0 0 171.412 50.18">
  <g id="Group_4653" data-name="Group 4653" transform="translate(-47.955 -410.967)">
    <path id="Path_14148" data-name="Path 14148" d="M131.078,461.147H64.9c-9.358,0-16.945-11.233-16.945-25.09h0c0-13.858,7.586-25.09,16.945-25.09h66.178Z" transform="translate(0)" fill="#e43c00"/>
    <path id="Path_14149" data-name="Path 14149" d="M1642.626,461.147h70.292c9.94,0,18-11.233,18-25.09h0c0-13.858-8.058-25.09-18-25.09h-70.292Z" transform="translate(-1511.548)" fill="#e43c00"/>
    <path id="Path_14150" data-name="Path 14150" d="M329.225,532.367v-27.5h5.014v27.5h9.823V501.556H326v-4.748h40.109v4.748H349.075v11.622H363.81v4.748H349.075v14.441h17.548v4.748H324.314v-4.748Z" transform="translate(-261.954 -81.366)" fill="#fff"/>
    <path id="Path_14151" data-name="Path 14151" d="M2202.6,464.548c-3.581,7.716-8.135,13.106-13.66,16.271V475.33a25.568,25.568,0,0,0,8.237-10.782Zm-13.608,25.767v-5.341a27.585,27.585,0,0,0,9.874-11.325h5.269a44.425,44.425,0,0,1-5.065,8.062v26.262h-4.656V486.605A30.913,30.913,0,0,1,2188.991,490.315Zm42.77-2.422V491.8h-28.445v-3.907Zm-22.767,5.291c-.1,6.627-2,11.425-5.679,14.491l.051-6.329a16.837,16.837,0,0,0,1.688-8.162Zm10.949-28.438v2.572h11.613v4.155h-11.613v2.077h5.576a7.54,7.54,0,0,1,4.758,2.127,6.342,6.342,0,0,1,1.586,4.2,6.211,6.211,0,0,1-1.893,4.4,7.24,7.24,0,0,1-4.912,1.979h-19.952V473.549h10.13v-2.077h-10.744v-4.155h10.744v-2.572Zm-10.59,12.612v4.9h3.223v-4.9Zm6.19,15.826c-.1,2.72-.153,5.144-.153,7.319a2.082,2.082,0,0,0,2.353,2.375c4.707,0,7.163-.1,7.419-.3v4.154c-.665.1-3.786.2-9.414.2-3.172-.346-4.707-2.275-4.707-5.736,0-2.919,0-5.589.1-8.013Zm4.144-10.93v-4.9h-3.325v4.9Zm2.2,10.93a59.514,59.514,0,0,1,1.842,7.715h-4.246a75.183,75.183,0,0,0-1.74-7.715Zm2.865-10.93a2.64,2.64,0,0,0,2.66-2.325c0-1.533-1.177-2.374-3.479-2.572h-.461v4.9Zm4.246,10.93a108.293,108.293,0,0,1,3.377,14h-4.451a123.245,123.245,0,0,0-3.479-14Z" transform="translate(-2029.385 -50.788)" fill="#fff"/>
    <path id="Path_14152" data-name="Path 14152" d="M1164.363,442.807a24.86,24.86,0,1,0,24.86-24.859A24.859,24.859,0,0,0,1164.363,442.807Z" transform="translate(-1058.215 -6.617)" fill="#00784a"/>
    <path id="Path_14153" data-name="Path 14153" d="M1643.733,479.307V430.943a24.182,24.182,0,0,1,0,48.364Z" transform="translate(-1512.598 -18.935)" fill="#fffbd1"/>
    <g id="Group_4651" data-name="Group 4651" transform="translate(131.139 428.812)">
      <path id="Path_14154" data-name="Path 14154" d="M1656.753,1045.656a.274.274,0,0,0-.255.2,20.483,20.483,0,0,1-4.509,8.909,22.292,22.292,0,0,1-7.013,5.065,12.827,12.827,0,0,0-1.166.6v1.286a21.3,21.3,0,0,0,10.453-7.851,18.34,18.34,0,0,0,3.156-7.521,1.05,1.05,0,0,0,.008-.129.555.555,0,0,0-.118-.375A.677.677,0,0,0,1656.753,1045.656Z" transform="translate(-1643.81 -1030.415)" fill="#00784a"/>
      <g id="Group_4650" data-name="Group 4650" transform="translate(1.142 0)">
        <path id="Path_14155" data-name="Path 14155" d="M1939.318,813.376h0a3.755,3.755,0,0,0-2.614,1.5,5.162,5.162,0,0,0-.987,2.257l0,.022a.668.668,0,0,1-.019.065,14.935,14.935,0,0,0-.807,3.938,5.871,5.871,0,0,1,3.562-1.732c-.006,0,.193-.029.193-.029.158-.036.9-.219,1.449-.381l.2-.738a7.76,7.76,0,0,0,.262-1.6l-.019-.227a3.174,3.174,0,0,1-.046-.515,2.82,2.82,0,0,1,.31-1.279,2.921,2.921,0,0,1,.989-1.063A9.593,9.593,0,0,0,1939.318,813.376Z" transform="translate(-1920.858 -810.24)" fill="#00784a"/>
        <path id="Path_14156" data-name="Path 14156" d="M1914.76,924.075h0a19,19,0,0,1-2.146.622c-.009,0-.211.031-.211.031a5.47,5.47,0,0,0-3.365,1.646,5.863,5.863,0,0,0-1.688,3.788,1.644,1.644,0,0,0,.729.526c1.771.556,3.535-.72,5.491-2.313a8.437,8.437,0,0,0,2.5-3.39s-.014.074-.016.081l.062-.194a1.71,1.71,0,0,1,.418-.563,1.931,1.931,0,0,0-.607-.36A1.638,1.638,0,0,0,1914.76,924.075Z" transform="translate(-1894.753 -914.997)" fill="#00784a"/>
        <path id="Path_14157" data-name="Path 14157" d="M1704.841,816.111h-.009a.93.93,0,0,0-.27.055,2.277,2.277,0,0,1,.411.793c.042.164.223.585.45,1.117l.014.031.874,2.1a2.1,2.1,0,0,0,.323.545l.667.057a7.317,7.317,0,0,1,3.323.971,15.314,15.314,0,0,1-.219-2.561s0-.193,0-.289a12.712,12.712,0,0,0-2.647-2.22A4.7,4.7,0,0,0,1704.841,816.111Z" transform="translate(-1702.538 -812.818)" fill="#00784a"/>
        <path id="Path_14158" data-name="Path 14158" d="M1827.531,753.33h0l-.063,0a.662.662,0,0,0-.2.246.184.184,0,0,1-.105.094.166.166,0,0,0,.068-.033,8.845,8.845,0,0,0-1.909,5.271s-.025.819-.025.819a14.916,14.916,0,0,0,.244,2.644s.049.217.071.3a9.451,9.451,0,0,1,1.167,1.144,7.561,7.561,0,0,1,2.1,4.193,1.1,1.1,0,0,0,.254.189,6.648,6.648,0,0,1,1.374-3.388,16.215,16.215,0,0,1,.889-4.729,5.986,5.986,0,0,1,.174-.711,9.285,9.285,0,0,0-.492-1.972,8.755,8.755,0,0,0-2-2.888s-.444-.486-.444-.486C1827.979,753.286,1827.723,753.313,1827.531,753.33Zm-.372.345a.136.136,0,0,1-.123-.032A.125.125,0,0,0,1827.159,753.675Zm-1.833,5.237,3.806,9.311" transform="translate(-1816.982 -753.324)" fill="#00784a"/>
        <path id="Path_14159" data-name="Path 14159" d="M1667.112,916.236l-.312.111a2.341,2.341,0,0,1-1.089.071c.451,1.785,1.833,3.475,4.124,5.017a13.523,13.523,0,0,0,5.752,1.844,1.67,1.67,0,0,0,1.6-1.053,7.058,7.058,0,0,0-1.99-4.009,6.054,6.054,0,0,0-4.772-2.358A6.438,6.438,0,0,0,1667.112,916.236Z" transform="translate(-1665.711 -907.323)" fill="#00784a"/>
      </g>
    </g>
    <g id="Group_4652" data-name="Group 4652" transform="translate(108.302 428.844)">
      <path id="Path_14160" data-name="Path 14160" d="M1383.231,1045.059a.273.273,0,0,1,.256.2,20.493,20.493,0,0,0,4.507,8.909,22.332,22.332,0,0,0,7.013,5.065,12.87,12.87,0,0,1,1.167.6v1.286a21.284,21.284,0,0,1-10.453-7.851,18.347,18.347,0,0,1-3.156-7.521.973.973,0,0,1-.009-.129.563.563,0,0,1,.119-.375A.676.676,0,0,1,1383.231,1045.059Z" transform="translate(-1373.337 -1029.88)" fill="#fffbd1"/>
      <path id="Path_14161" data-name="Path 14161" d="M1222.989,814.123a2.78,2.78,0,0,1,1.208,2.313,3.294,3.294,0,0,1-.05.547.284.284,0,0,0,0-.038.207.207,0,0,0-.028-.1.293.293,0,0,1,.022.121c0,.06-.006.138-.013.237a8.126,8.126,0,0,0,.264,1.571c0-.019-.021-.027-.03-.043.047.106.107.321.222.731v.006c.549.161,1.265.335,1.426.374,0,0-.025,0-.026-.006l.211.035a5.9,5.9,0,0,1,3.49,1.657,14.613,14.613,0,0,0-.79-3.78s-.023-.079-.023-.079l0-.023a5.094,5.094,0,0,0-.971-2.222,3.713,3.713,0,0,0-2.58-1.487A10.137,10.137,0,0,0,1222.989,814.123Z" transform="translate(-1222.088 -810.801)" fill="#fffbd1"/>
      <path id="Path_14162" data-name="Path 14162" d="M1206.233,924.507h0a1.892,1.892,0,0,0-.538.308,1.745,1.745,0,0,1,.376.525l.039.107s.009.008.011.011a8.375,8.375,0,0,0,2.483,3.37c1.944,1.586,3.7,2.851,5.462,2.3a1.688,1.688,0,0,0,.681-.478,5.81,5.81,0,0,0-1.673-3.726,5.414,5.414,0,0,0-3.334-1.629l-.207-.032a17.653,17.653,0,0,1-2.17-.629A1.614,1.614,0,0,0,1206.233,924.507Z" transform="translate(-1205.695 -915.562)" fill="#fffbd1"/>
      <path id="Path_14163" data-name="Path 14163" d="M1470.964,817.289a12.916,12.916,0,0,0-2.621,2.2c0,.068,0,.15.007.258h0a15.65,15.65,0,0,1-.2,2.451,7.418,7.418,0,0,1,3.242-.92l.653-.056a2.216,2.216,0,0,0,.3-.507s.874-2.1.874-2.1l.013-.036c.229-.533.408-.948.449-1.107a2.389,2.389,0,0,1,.355-.724.909.909,0,0,0-.167-.045A4.72,4.72,0,0,0,1470.964,817.289Zm-2.625,2.134c0-.007.006-.011.006-.02a.2.2,0,0,0-.012-.07s-.005-.005-.007-.009A.693.693,0,0,1,1468.339,819.423Z" transform="translate(-1454.471 -813.409)" fill="#fffbd1"/>
      <path id="Path_14164" data-name="Path 14164" d="M1347.314,753.92a.126.126,0,0,1,.054.013A.1.1,0,0,0,1347.314,753.92Zm-1.455.681s0,0,0,0l-.45.491a8.745,8.745,0,0,0-1.991,2.868,8.97,8.97,0,0,0-.484,1.943,6.641,6.641,0,0,1,.169.7,16.418,16.418,0,0,1,.889,4.722,6.747,6.747,0,0,1,1.365,3.322,1.476,1.476,0,0,0,.166-.133,7.62,7.62,0,0,1,2.116-4.2,9.439,9.439,0,0,1,1.16-1.135c.019-.084.068-.29.068-.29a14.913,14.913,0,0,0,.237-2.624s-.024-.817-.024-.817a8.765,8.765,0,0,0-1.884-5.211c-.005-.006,0-.014-.005-.017a.333.333,0,0,1-.051-.069.683.683,0,0,0-.166-.217h-.054C1346.743,753.906,1346.5,753.882,1345.859,754.6Zm1.4-.655s0,0,0,0a.009.009,0,0,1,.006-.005S1347.26,753.944,1347.26,753.946Zm.1.318a.129.129,0,0,0,.1-.044A.139.139,0,0,1,1347.357,754.264Z" transform="translate(-1335.783 -753.92)" fill="#fffbd1"/>
      <path id="Path_14165" data-name="Path 14165" d="M1409.423,916.431h0a6.024,6.024,0,0,0-4.74,2.343,7.012,7.012,0,0,0-1.971,3.957,1.621,1.621,0,0,0,1.55,1,13.512,13.512,0,0,0,5.727-1.835c2.24-1.51,3.6-3.154,4.075-4.892a2.324,2.324,0,0,1-1.026-.086l-.313-.111A6.416,6.416,0,0,0,1409.423,916.431Z" transform="translate(-1392.442 -907.898)" fill="#fffbd1"/>
    </g>
  </g>
</svg>
